{"title":"Bonnie Tyler - The Best ( 1993 ) ( FLAC )","uid":4946006,"size":579291083,"categoryP":"audio","categoryS":"flac","magnet":"?xt=urn:btih:dcaae8a56942c85e07d4670733cce24211c0847a&amp;dn=Bonnie+Tyler+-+The+Best+%28+1993+%29+%28+FLAC+%29&amp;tr=udp%3A%2F%2Ftracker.openbittorrent.com%3A80&amp;tr=udp%3A%2F%2Fopen.demonii.com%3A1337&amp;tr=udp%3A%2F%2Ftracker.coppersurfer.tk%3A6969&amp;tr=udp%3A%2F%2Fexodus.desync.com%3A6969","seeders":1,"leechers":0,"uploader":"foteberg","files":30,"time":1244661507,"description":"Bonnie Tyler - The Best  (EAC v-FLAC CUE Log Scans M3U) Included\n\t\n\n\n\n\nLabel: Columbia\n\nCatalog#: 473522 2\n\nFormat: CD\n\nCountry: UK\n\nReleased: 1993\n\nGenre: Electronic, Rock\n\nStyle: Pop Rock, Synth-pop\n\n\n\n\n\n\n\n\n\n\n\nTracklisting:\n\n\n\n1. Total Eclipse Of The Heart (4:27)\n\n2. Faster Than The Speed Of Light (4:40)\n\n3. Have You Ever Seen The Rain? (4:03)\n\n4. If You Were A Woman (And I Was A Man) (3:57)\n\n5. Here She Comes (3:21)\n\n6. Loving You's A Dirty Job But Somebody's Gotta Do It (5:47)\n\n7. Getting So Excited (3:38)\n\n8. Save Up All Your Tears (4:02)\n\n9. The Best (4:00)\n\n10. Holding Out For A Hero (4:28)\n\n11. Married Men (3:57)\n\n12. A Rockin' Good Way (To Mess Around And Fall In Love) (2:54)\n  \t  Featuring - Shakin' Stevens\n\n13. More Than A Lover (4:08)\n\n14. Don't Turn Around (4:16)\n\n15. Lovers Again (4:13)\n\n16. Lost In France (3:57)\n\n17. It's A Heartache (3:30)\n\n18. To Love Somebody (5:30)\n\n\n\n\n\n\n\n\n\n\n\n\n\n\n\n\n\n\nEAC Log :\n\n\n\n\n\n\n\n\nExact Audio Copy V0.99 prebeta 4 from 23. January 2008\n\nEAC extraction logfile from 10. June 2009, 19:04\n\nBonnie Tyler / The Best\n\nUsed drive  : HL-DT-STDVD-RAM GSA-H50L   Adapter: 0  ID: 0\n\nRead mode               : Secure\nUtilize accurate stream : Yes\nDefeat audio cache      : No\nMake use of C2 pointers : No\n\nRead offset correction                      : 102\nOverread into Lead-In and Lead-Out          : No\nFill up missing offset samples with silence : Yes\nDelete leading and trailing silent blocks   : No\nNull samples used in CRC calculations       : Yes\nUsed interface                              : Native Win32 interface for Win NT &amp; 2000\nGap handling                                : Not detected, thus appended to previous track\n\nUsed output format              : User Defined Encoder\nSelected bitrate                : 128 kBit/s\nQuality                         : High\nAdd ID3 tag                     : No\nCommand line compressor         : C:Program FilesExact Audio CopyFlacflac.exe\nAdditional command line options : -T &quot;artist=%a&quot; -T &quot;title=%t&quot; -T &quot;album=%g&quot; -T &quot;date=%y&quot; -T &quot;tracknumber=%n&quot; -T &quot;genre=%m&quot; -8 %s\n\n\nTOC of the extracted CD\n\n     Track |   Start  |  Length  | Start sector | End sector \n    ---------------------------------------------------------\n        1  |  0:00.00 |  4:32.27 |         0    |    20426   \n        2  |  4:32.27 |  4:42.13 |     20427    |    41589   \n        3  |  9:14.40 |  4:07.45 |     41590    |    60159   \n        4  | 13:22.10 |  5:16.25 |     60160    |    83884   \n        5  | 18:38.35 |  3:24.35 |     83885    |    99219   \n        6  | 22:02.70 |  5:50.27 |     99220    |   125496   \n        7  | 27:53.22 |  3:31.40 |    125497    |   141361   \n        8  | 31:24.62 |  4:06.05 |    141362    |   159816   \n        9  | 35:30.67 |  4:17.65 |    159817    |   179156   \n       10  | 39:48.57 |  4:24.15 |    179157    |   198971   \n       11  | 44:12.72 |  3:47.23 |    198972    |   216019   \n       12  | 48:00.20 |  2:52.72 |    216020    |   228991   \n       13  | 50:53.17 |  4:12.25 |    228992    |   247916   \n       14  | 55:05.42 |  4:16.28 |    247917    |   267144   \n       15  | 59:21.70 |  4:16.30 |    267145    |   286374   \n       16  | 63:38.25 |  3:53.05 |    286375    |   303854   \n       17  | 67:31.30 |  3:31.25 |    303855    |   319704   \n       18  | 71:02.55 |  5:48.52 |    319705    |   345856   \n\n\nTrack  1\n\n     Filename F:uTorrentBonnie Tyler - The Best01 Bonnie Tyler - Total Eclipse Of The Heart.wav\n\n     Peak level 91.8 %\n     Track quality 100.0 %\n     Test CRC 29E5835F\n     Copy CRC 29E5835F\n     Accurately ripped (confidence 13)  [AF64E2E9]\n     Copy OK\n\nTrack  2\n\n     Filename F:uTorrentBonnie Tyler - The Best02 Bonnie Tyler - Faster Than The Speed Of Night.wav\n\n     Peak level 97.4 %\n     Track quality 100.0 %\n     Test CRC 42D060A9\n     Copy CRC 42D060A9\n     Accurately ripped (confidence 13)  [B1E83C97]\n     Copy OK\n\nTrack  3\n\n     Filename F:uTorrentBonnie Tyler - The Best03 Bonnie Tyler - Have You Ever Seen The Rain.wav\n\n     Peak level 84.7 %\n     Track quality 100.0 %\n     Test CRC DEEAC8C7\n     Copy CRC DEEAC8C7\n     Accurately ripped (confidence 13)  [D6722488]\n     Copy OK\n\nTrack  4\n\n     Filename F:uTorrentBonnie Tyler - The Best04 Bonnie Tyler - If You Were A Woman  (And I Was A Man).wav\n\n     Peak level 87.7 %\n     Track quality 100.0 %\n     Test CRC 002F3710\n     Copy CRC 002F3710\n     Accurately ripped (confidence 13)  [9205C9D9]\n     Copy OK\n\nTrack  5\n\n     Filename F:uTorrentBonnie Tyler - The Best05 Bonnie Tyler - Here She Comes.wav\n\n     Peak level 88.2 %\n     Track quality 100.0 %\n     Test CRC 782BE49F\n     Copy CRC 782BE49F\n     Accurately ripped (confidence 13)  [EA6DF43B]\n     Copy OK\n\nTrack  6\n\n     Filename F:uTorrentBonnie Tyler - The Best06 Bonnie Tyler - Loving You's A Dirty Job But Somebody's Gotta Do It.wav\n\n     Peak level 92.1 %\n     Track quality 100.0 %\n     Test CRC B31894ED\n     Copy CRC B31894ED\n     Accurately ripped (confidence 13)  [7B07A9B7]\n     Copy OK\n\nTrack  7\n\n     Filename F:uTorrentBonnie Tyler - The Best07 Bonnie Tyler - Getting So Excited.wav\n\n     Peak level 89.8 %\n     Track quality 99.9 %\n     Test CRC 6B0CAB20\n     Copy CRC 6B0CAB20\n     Accurately ripped (confidence 13)  [78ADFC75]\n     Copy OK\n\nTrack  8\n\n     Filename F:uTorrentBonnie Tyler - The Best08 Bonnie Tyler - Save Up All Your Tears.wav\n\n     Peak level 89.7 %\n     Track quality 99.9 %\n     Test CRC C3D5821C\n     Copy CRC C3D5821C\n     Accurately ripped (confidence 13)  [C59FD228]\n     Copy OK\n\nTrack  9\n\n     Filename F:uTorrentBonnie Tyler - The Best09 Bonnie Tyler - The Best.wav\n\n     Peak level 96.4 %\n     Track quality 100.0 %\n     Test CRC 3F74BF5F\n     Copy CRC 3F74BF5F\n     Accurately ripped (confidence 13)  [74F01A27]\n     Copy OK\n\nTrack 10\n\n     Filename F:uTorrentBonnie Tyler - The Best10 Bonnie Tyler - Holding Out For A Hero.wav\n\n     Peak level 99.9 %\n     Track quality 100.0 %\n     Test CRC 0474915D\n     Copy CRC 0474915D\n     Accurately ripped (confidence 13)  [D4CB2768]\n     Copy OK\n\nTrack 11\n\n     Filename F:uTorrentBonnie Tyler - The Best11 Bonnie Tyler - Married Men.wav\n\n     Peak level 100.0 %\n     Track quality 100.0 %\n     Test CRC 3773686E\n     Copy CRC 3773686E\n     Accurately ripped (confidence 12)  [74193187]\n     Copy OK\n\nTrack 12\n\n     Filename F:uTorrentBonnie Tyler - The Best12 Bonnie Tyler - A Rockin' Good Way  (To Mess Around And Fall In Love) (Duet With Shakin' Stevens).wav\n\n     Peak level 100.0 %\n     Track quality 100.0 %\n     Test CRC 42247C3C\n     Copy CRC 42247C3C\n     Accurately ripped (confidence 13)  [7D19EF14]\n     Copy OK\n\nTrack 13\n\n     Filename F:uTorrentBonnie Tyler - The Best13 Bonnie Tyler - More Than A Lover.wav\n\n     Peak level 100.0 %\n     Track quality 99.9 %\n     Test CRC 2F5B65C4\n     Copy CRC 2F5B65C4\n     Accurately ripped (confidence 13)  [27A2FFB4]\n     Copy OK\n\nTrack 14\n\n     Filename F:uTorrentBonnie Tyler - The Best14 Bonnie Tyler - Don't Turn Around.wav\n\n     Peak level 94.7 %\n     Track quality 99.9 %\n     Test CRC 2FD47598\n     Copy CRC 2FD47598\n     Accurately ripped (confidence 12)  [7E4396EE]\n     Copy OK\n\nTrack 15\n\n     Filename F:uTorrentBonnie Tyler - The Best15 Bonnie Tyler - Lovers Again.wav\n\n     Peak level 84.4 %\n     Track quality 100.0 %\n     Test CRC 0F07DFA2\n     Copy CRC 0F07DFA2\n     Accurately ripped (confidence 11)  [3D587ACC]\n     Copy OK\n\nTrack 16\n\n     Filename F:uTorrentBonnie Tyler - The Best16 Bonnie Tyler - Lost In France.wav\n\n     Peak level 98.5 %\n     Track quality 100.0 %\n     Test CRC A2DC5AF7\n     Copy CRC A2DC5AF7\n     Accurately ripped (confidence 11)  [49ED89C2]\n     Copy OK\n\nTrack 17\n\n     Filename F:uTorrentBonnie Tyler - The Best17 Bonnie Tyler - It's A Heartache.wav\n\n     Peak level 87.4 %\n     Track quality 100.0 %\n     Test CRC DE54E4B5\n     Copy CRC DE54E4B5\n     Accurately ripped (confidence 11)  [B73088D0]\n     Copy OK\n\nTrack 18\n\n     Filename F:uTorrentBonnie Tyler - The Best18 Bonnie Tyler - To Love Somebody.wav\n\n     Peak level 79.3 %\n     Track quality 99.9 %\n     Test CRC C16F0653\n     Copy CRC C16F0653\n     Accurately ripped (confidence 11)  [9D62EB81]\n     Copy OK\n\n\nAll tracks accurately ripped\n\nNo errors occurred\n\nEnd of status report\n\n\n\n\n\n\n\n\n\n\nThanks For Seeding..!\n\n\n\nENJOY..!!\n","torrent":{"xt":"urn:btih:dcaae8a56942c85e07d4670733cce24211c0847a","amp;dn":"Bonnie+Tyler+-+The+Best+%28+1993+%29+%28+FLAC+%29","amp;tr":["udp%3A%2F%2Ftracker.openbittorrent.com%3A80","udp%3A%2F%2Fopen.demonii.com%3A1337","udp%3A%2F%2Ftracker.coppersurfer.tk%3A6969","udp%3A%2F%2Fexodus.desync.com%3A6969"],"infoHash":"dcaae8a56942c85e07d4670733cce24211c0847a","infoHashBuffer":{"type":"Buffer","data":[220,170,232,165,105,66,200,94,7,212,103,7,51,204,226,66,17,192,132,122]},"announce":[],"urlList":[]}}